<svg xmlns="http://www.w3.org/2000/svg" viewBox="0 0 2887.75 293.05"><g id="Layer_2" data-name="Layer 2"><g id="FRAMES_copy" data-name="FRAMES copy"><path d="M0,242.34l48.72-41.12c13.58,20.36,37.94,32.34,58.71,32.34,21.16,0,34.34-10,34.34-23.56,0-14.37-11.18-24.35-39.53-33.93l-20-6.79c-45.93-15.57-71.49-43.12-71.49-81.85C10.78,32.34,51.92,0,108.63,0,143,0,173.72,10.78,200.08,39.13L158.55,83c-13.18-16-31.15-23.55-49.12-23.55-17.18,0-34.35,6.78-34.35,21.56,0,15.17,14,22,43.93,32.73L139,121c41.13,14.77,67.89,41.92,67.49,84.64-.4,51.5-41.53,87.44-101.44,87.44C60.3,293.05,22,274.28,0,242.34Z"/><path d="M222.84,176.07V4.79h63.5V176.86c0,33.94,21.56,54.7,53.11,54.7s53.12-20.76,53.12-54.7V4.79h63.5V176.07c0,70.66-48.72,117-116.62,117C271.16,293.05,222.84,246.73,222.84,176.07Z"/><path d="M484.82,4.79h63.49V288.25H484.82Z"/><path d="M643.36,65.48H571.08V4.79H780.34V65.48H707.26V288.25h-63.9Z"/><path d="M803.5,4.79H983.21V65.48H867v50.7h92.25v60.68H867v50.71H983.21v60.68H803.5Z"/><path d="M1015.56,4.79h96.65c79.87,0,144.57,63.08,144.57,141.73s-64.7,141.73-144.57,141.73h-96.65ZM1112.21,230c47.92,0,80.27-37.93,80.27-83.45s-32.35-83.44-80.27-83.44h-33.15V230Z"/><path d="M1338.24,242.34,1387,201.22c13.58,20.36,37.94,32.34,58.71,32.34,21.17,0,34.34-10,34.34-23.56,0-14.37-11.18-24.35-39.53-33.93l-20-6.79c-45.93-15.57-71.49-43.12-71.49-81.85C1349,32.34,1390.16,0,1446.87,0c34.34,0,65.09,10.78,91.45,39.13L1496.79,83c-13.18-16-31.15-23.55-49.12-23.55-17.18,0-34.35,6.78-34.35,21.56,0,15.17,14,22,43.93,32.73l20,7.19c41.13,14.77,67.89,41.92,67.49,84.64-.4,51.5-41.53,87.44-101.44,87.44C1398.55,293.05,1360.21,274.28,1338.24,242.34Z"/><path d="M1569.07,176.07V4.79h63.5V176.86c0,33.94,21.56,54.7,53.11,54.7s53.12-20.76,53.12-54.7V4.79h63.5V176.07c0,70.66-48.72,117-116.62,117C1617.39,293.05,1569.07,246.73,1569.07,176.07Z"/><path d="M1843,4.79h63.49V288.25H1843Z"/><path d="M2001.57,65.48h-72.28V4.79h209.26V65.48h-73.08V288.25h-63.9Z"/><path d="M2161.31,4.79H2341V65.48H2224.81v50.7h92.25v60.68h-92.25v50.71H2341v60.68H2161.31Z"/><path d="M2352.6,242.34l48.73-41.12c13.58,20.36,37.94,32.34,58.7,32.34,21.17,0,34.35-10,34.35-23.56,0-14.37-11.18-24.35-39.54-33.93l-20-6.79c-45.92-15.57-71.48-43.12-71.48-81.85,0-55.09,41.13-87.43,97.84-87.43,34.35,0,65.1,10.78,91.46,39.13L2511.15,83C2498,67.07,2480,59.49,2462,59.49c-17.17,0-34.35,6.78-34.35,21.56,0,15.17,14,22,43.93,32.73l20,7.19c41.14,14.77,67.89,41.92,67.49,84.64-.39,51.5-41.53,87.44-101.43,87.44C2412.91,293.05,2374.57,274.28,2352.6,242.34Z"/><path d="M2642.14,49.9H2605V4.79h120.21V49.9h-37.14v97h-45.93Zm105-45.11h41.93l28.36,56.69,28.35-56.69h41.94V146.92h-43.53V78.65l-16.38,27.95h-20.36L2790.7,78.25v68.67h-43.53Z"/></g></g></svg>