<svg xmlns="http://www.w3.org/2000/svg" viewBox="0 0 283.46 283.46"><defs><style>.cls-1{fill:#fff;}</style></defs><g id="Layer_2" data-name="Layer 2"><g id="FRAMES_copy" data-name="FRAMES copy"><path d="M141.73,103.11a38.62,38.62,0,1,1-38.62,38.62,38.66,38.66,0,0,1,38.62-38.62m0-12.76a51.38,51.38,0,1,0,51.38,51.38,51.39,51.39,0,0,0-51.38-51.38Z"/><rect class="cls-1" width="283.46" height="141.73"/><path d="M141.73,12.76a129,129,0,0,1,91.2,220.17A129,129,0,0,1,50.53,50.53a128.13,128.13,0,0,1,91.2-37.77m0-12.76A141.73,141.73,0,1,0,283.46,141.73,141.74,141.74,0,0,0,141.73,0Z"/><path d="M51.38,128.8a12.94,12.94,0,1,1-12.94,12.93A12.94,12.94,0,0,1,51.38,128.8m0-12.76a25.69,25.69,0,1,0,25.69,25.69A25.69,25.69,0,0,0,51.38,116Z"/><path d="M232.09,128.8a12.94,12.94,0,1,1-12.94,12.93,12.94,12.94,0,0,1,12.94-12.93m0-12.76a25.69,25.69,0,1,0,25.69,25.69A25.69,25.69,0,0,0,232.09,116Z"/></g></g></svg>